<?xml version="1.0" encoding="utf-8"?>
<!-- Generator: Adobe Illustrator 16.2.1, SVG Export Plug-In . SVG Version: 6.00 Build 0)  -->
<!DOCTYPE svg PUBLIC "-//W3C//DTD SVG 1.1//EN" "http://www.w3.org/Graphics/SVG/1.1/DTD/svg11.dtd">
<svg version="1.1" id="BURO" xmlns="http://www.w3.org/2000/svg" xmlns:xlink="http://www.w3.org/1999/xlink" x="0px" y="0px"
	 width="460px" height="140px" viewBox="0 0 460 140" enable-background="new 0 0 460 140" xml:space="preserve">
<path d="M0,0v140h60c22.092,0,40-17.908,40-40c0-22.091-17.908-40-40-40H19.999V20.001H80V0H0z M60,119.999H19.999V80H60
	c11.045,0,20,8.955,20,20S71.045,119.999,60,119.999z"/>
<path fill="#808285" d="M204,0h-12c-22.091,0-40,17.909-40,39.999V60h-20V0h-20v140h20V80h20v20c0,22.091,17.909,40,40,40h12
	c22.091,0,40-17.909,40-40V39.999C244,17.909,226.091,0,204,0z M224,100c0,11.045-8.953,19.999-20,19.999h-12
	C180.954,119.999,172,111.045,172,100V39.999c0-11.044,8.953-19.998,19.999-19.998h12c11.047,0,20,8.953,20,19.998V100z"/>
<path d="M420,0h-12.001C385.907,0,368,17.909,368,39.999V100c0,22.092,17.907,40,39.999,40H420c22.092,0,40-17.908,40-40V39.999
	C460,17.909,442.092,0,420,0z M420,119.999h-12.001C396.954,119.999,388,111.045,388,100V39.999
	c0-11.044,8.954-19.998,19.999-19.998H420c11.046,0,20,8.953,20,19.998V100C440,111.045,431.046,119.999,420,119.999z"/>
<path d="M316.001,0H256v140h20.001V80h40C338.093,80,356,62.092,356,39.999C356,17.909,338.093,0,316.001,0z M316.001,60h-40V20
	l40,0c11.045,0,20,8.954,20,19.999C336.001,51.045,327.046,60,316.001,60z"/>
</svg>
