<?xml version="1.0" encoding="utf-8"?>
<!-- Generator: Adobe Illustrator 16.2.1, SVG Export Plug-In . SVG Version: 6.00 Build 0)  -->
<!DOCTYPE svg PUBLIC "-//W3C//DTD SVG 1.1//EN" "http://www.w3.org/Graphics/SVG/1.1/DTD/svg11.dtd">
<svg version="1.1" xmlns="http://www.w3.org/2000/svg" xmlns:xlink="http://www.w3.org/1999/xlink" x="0px" y="0px" width="460px"
	 height="214.265px" viewBox="0 0 460 214.265" enable-background="new 0 0 460 214.265" xml:space="preserve">
<g id="BURO">
	<path d="M0,0v140h60c22.092,0,40-17.908,40-40c0-22.091-17.908-40-40-40H19.999V20.001H80V0H0z M60,119.999H19.999V80H60
		c11.045,0,20,8.955,20,20S71.045,119.999,60,119.999z"/>
	<path fill="#808285" d="M204,0h-12c-22.091,0-40,17.909-40,39.999V60h-20V0h-20v140h20V80h20v20c0,22.091,17.909,40,40,40h12
		c22.091,0,40-17.909,40-40V39.999C244,17.909,226.091,0,204,0z M224,100c0,11.045-8.953,19.999-20,19.999h-12
		C180.954,119.999,172,111.045,172,100V39.999c0-11.044,8.953-19.998,19.999-19.998h12c11.047,0,20,8.953,20,19.998V100z"/>
	<path d="M420,0h-12.001C385.907,0,368,17.909,368,39.999V100c0,22.092,17.907,40,39.999,40H420c22.092,0,40-17.908,40-40V39.999
		C460,17.909,442.092,0,420,0z M420,119.999h-12.001C396.954,119.999,388,111.045,388,100V39.999
		c0-11.044,8.954-19.998,19.999-19.998H420c11.046,0,20,8.953,20,19.998V100C440,111.045,431.046,119.999,420,119.999z"/>
	<path d="M316.001,0H256v140h20.001V80h40C338.093,80,356,62.092,356,39.999C356,17.909,338.093,0,316.001,0z M316.001,60h-40V20
		l40,0c11.045,0,20,8.954,20,19.999C336.001,51.045,327.046,60,316.001,60z"/>
</g>
<g id="Experience_Bureau">
	<g>
		<path d="M0,200.037V159.55h29.8v7.021H8.244v8.673H28.09v7.144H8.244v10.443h22.533v7.206H0z"/>
		<path d="M50.867,200.037l-5.25-9.038l-5.13,9.038H30.96l10.075-15.328l-9.771-14.717h9.588l5.068,8.73l5.129-8.73h9.222
			l-9.955,14.717l10.259,15.328H50.867z"/>
		<path d="M62.347,214.265v-44.272h7.634l0.061,3.665c1.832-2.973,4.62-4.46,8.367-4.46c1.872,0,3.611,0.367,5.22,1.1
			c1.608,0.732,2.982,1.793,4.123,3.176c1.14,1.386,2.035,3.074,2.688,5.068c0.65,1.995,0.976,4.255,0.976,6.777
			c0,2.281-0.275,4.369-0.825,6.261c-0.55,1.894-1.354,3.532-2.412,4.916c-1.059,1.384-2.351,2.454-3.877,3.206
			c-1.527,0.753-3.268,1.13-5.221,1.13c-3.665,0-6.636-1.567-8.916-4.703v18.137H62.347z M76.514,194.051
			c4.559,0,6.84-3.093,6.84-9.281c0-2.688-0.632-4.875-1.894-6.564c-1.262-1.688-2.89-2.534-4.885-2.534
			c-0.978,0-1.873,0.203-2.687,0.611c-0.815,0.408-1.517,0.998-2.107,1.77c-0.59,0.773-1.059,1.69-1.404,2.749
			c-0.347,1.06-0.52,2.22-0.52,3.482C69.858,190.796,72.077,194.051,76.514,194.051z"/>
		<path d="M101.246,187.09c0.122,2.322,0.783,4.144,1.984,5.467c1.201,1.324,2.778,1.985,4.733,1.985
			c1.302,0,2.451-0.295,3.45-0.888c0.997-0.59,1.638-1.413,1.923-2.472h8.183c-0.937,3.095-2.564,5.475-4.885,7.144
			c-2.32,1.67-5.089,2.505-8.305,2.505c-10.016,0-15.022-5.456-15.022-16.366c0-2.32,0.325-4.417,0.977-6.29
			c0.651-1.872,1.598-3.48,2.84-4.823c1.241-1.345,2.757-2.373,4.548-3.085c1.792-0.711,3.847-1.069,6.168-1.069
			c4.682,0,8.203,1.477,10.564,4.43c2.361,2.95,3.542,7.44,3.542,13.463H101.246z M113.765,182.082
			c-0.083-2.238-0.733-3.896-1.955-4.976c-1.222-1.078-2.625-1.618-4.213-1.618c-1.588,0-2.961,0.579-4.123,1.74
			c-1.16,1.161-1.823,2.779-1.984,4.854H113.765z"/>
		<path d="M124.389,200.037v-30.045h7.451v3.577c0.65-1.026,1.333-1.827,2.045-2.402c0.713-0.573,1.445-1.014,2.199-1.322
			c0.753-0.306,1.517-0.502,2.29-0.584c0.773-0.083,1.567-0.125,2.382-0.125h1.038v8.186c-0.732-0.124-1.465-0.185-2.198-0.185
			c-4.845,0-7.268,2.423-7.268,7.267v15.634H124.389z"/>
		<path d="M143.808,166.391V159h7.938v7.391H143.808z M143.808,200.037v-30.045h7.938v30.045H143.808z"/>
		<path d="M162.371,187.09c0.122,2.322,0.782,4.144,1.983,5.467c1.202,1.324,2.78,1.985,4.733,1.985
			c1.303,0,2.453-0.295,3.451-0.888c0.997-0.59,1.638-1.413,1.924-2.472h8.182c-0.937,3.095-2.565,5.475-4.886,7.144
			c-2.319,1.67-5.087,2.505-8.304,2.505c-10.016,0-15.023-5.456-15.023-16.366c0-2.32,0.325-4.417,0.979-6.29
			c0.65-1.872,1.596-3.48,2.838-4.823c1.241-1.345,2.758-2.373,4.55-3.085c1.791-0.711,3.848-1.069,6.167-1.069
			c4.682,0,8.204,1.477,10.565,4.43c2.36,2.95,3.542,7.44,3.542,13.463H162.371z M174.889,182.082
			c-0.083-2.238-0.732-3.896-1.953-4.976c-1.223-1.078-2.626-1.618-4.215-1.618c-1.586,0-2.961,0.579-4.121,1.74
			c-1.161,1.161-1.823,2.779-1.984,4.854H174.889z"/>
		<path d="M204.749,200.037v-18.198c0-2.319-0.387-3.888-1.16-4.702c-0.774-0.813-2.098-1.221-3.97-1.221
			c-4.111,0-6.167,2.3-6.167,6.9v17.221h-7.939v-30.045h7.573v4.382c0.932-1.726,2.17-3.028,3.711-3.912
			c1.542-0.882,3.532-1.326,5.967-1.326c1.42,0,2.739,0.215,3.957,0.646c1.218,0.428,2.264,1.069,3.136,1.926
			c0.872,0.857,1.562,1.906,2.069,3.151c0.508,1.244,0.762,2.684,0.762,4.313v20.865H204.749z"/>
		<path d="M242.977,189.167c-0.206,1.751-0.703,3.339-1.496,4.764c-0.795,1.424-1.803,2.646-3.023,3.663
			c-1.221,1.018-2.625,1.812-4.214,2.383c-1.589,0.568-3.277,0.854-5.069,0.854c-2.035,0-3.897-0.337-5.586-1.009
			c-1.69-0.673-3.145-1.688-4.367-3.053c-1.222-1.363-2.167-3.053-2.84-5.068c-0.671-2.014-1.007-4.366-1.007-7.053
			c0-2.688,0.335-5.008,1.007-6.963c0.672-1.955,1.618-3.552,2.84-4.792c1.223-1.242,2.697-2.168,4.427-2.779
			s3.653-0.917,5.771-0.917c1.954,0,3.734,0.275,5.343,0.826c1.607,0.549,3.014,1.322,4.215,2.319
			c1.199,0.998,2.146,2.209,2.838,3.634s1.1,3.014,1.222,4.764h-7.998c-0.206-1.546-0.825-2.758-1.864-3.634
			c-1.037-0.876-2.31-1.314-3.816-1.314c-0.854,0-1.649,0.144-2.381,0.43c-0.733,0.284-1.374,0.764-1.923,1.435
			c-0.55,0.67-0.988,1.568-1.312,2.687c-0.327,1.118-0.489,2.493-0.489,4.122c0,1.668,0.163,3.104,0.489,4.306
			c0.324,1.201,0.751,2.209,1.282,3.021c0.527,0.815,1.148,1.416,1.862,1.802c0.71,0.389,1.455,0.582,2.229,0.582
			c1.547,0,2.871-0.429,3.969-1.284c1.099-0.854,1.73-2.096,1.894-3.725H242.977z"/>
		<path d="M252.258,187.09c0.122,2.322,0.782,4.144,1.984,5.467c1.201,1.324,2.777,1.985,4.732,1.985
			c1.303,0,2.451-0.295,3.45-0.888c0.997-0.59,1.64-1.413,1.925-2.472h8.182c-0.937,3.095-2.562,5.475-4.885,7.144
			c-2.32,1.67-5.089,2.505-8.305,2.505c-10.016,0-15.023-5.456-15.023-16.366c0-2.32,0.325-4.417,0.978-6.29
			c0.651-1.872,1.597-3.48,2.839-4.823c1.242-1.345,2.759-2.373,4.551-3.085c1.791-0.711,3.847-1.069,6.166-1.069
			c4.682,0,8.204,1.477,10.565,4.43c2.36,2.95,3.543,7.44,3.543,13.463H252.258z M264.776,182.082
			c-0.083-2.238-0.733-3.896-1.954-4.976c-1.223-1.078-2.626-1.618-4.215-1.618c-1.588,0-2.961,0.579-4.121,1.74
			c-1.159,1.161-1.822,2.779-1.984,4.854H264.776z"/>
		<path d="M290.301,200.037v-40.548h19.967c4.031,0,7.074,0.979,9.131,2.932c2.056,1.952,3.084,4.661,3.084,8.121
			c0,1.752-0.469,3.308-1.404,4.672c-0.938,1.363-2.119,2.331-3.543,2.899c0.855,0.326,1.659,0.743,2.414,1.252
			c0.752,0.51,1.402,1.159,1.953,1.955c0.549,0.794,0.985,1.73,1.312,2.809c0.324,1.079,0.488,2.351,0.488,3.818
			c0,3.702-1.242,6.644-3.725,8.822c-2.484,2.18-6.29,3.268-11.42,3.268H290.301z M298.482,166.511v8.794h10.688
			c3.419,0,5.128-1.466,5.128-4.396c0-1.546-0.438-2.668-1.312-3.359c-0.876-0.69-2.312-1.038-4.306-1.038H298.482z M309.23,193.137
			c1.955,0,3.48-0.54,4.58-1.621c1.1-1.076,1.649-2.471,1.649-4.181c0-1.832-0.53-3.146-1.589-3.939
			c-1.059-0.794-2.564-1.19-4.518-1.19h-10.871v10.932H309.23z"/>
		<path d="M344.832,200.037v-4.215c-1.995,3.339-5.109,5.009-9.344,5.009c-1.506,0-2.88-0.267-4.121-0.794
			c-1.242-0.529-2.311-1.284-3.207-2.261c-0.896-0.976-1.598-2.137-2.106-3.48c-0.511-1.345-0.764-2.849-0.764-4.519v-19.785h7.939
			v18.562c0,3.747,1.688,5.621,5.067,5.621c2.077,0,3.624-0.643,4.643-1.926c1.016-1.281,1.525-2.921,1.525-4.915v-17.343h7.877
			v30.045H344.832z"/>
		<path d="M355.518,200.037v-30.045h7.451v3.577c0.649-1.026,1.332-1.827,2.045-2.402c0.712-0.573,1.445-1.014,2.197-1.322
			c0.754-0.306,1.518-0.502,2.291-0.584c0.773-0.083,1.566-0.125,2.381-0.125h1.039v8.186c-0.733-0.124-1.466-0.185-2.199-0.185
			c-4.844,0-7.267,2.423-7.267,7.267v15.634H355.518z"/>
		<path d="M380.432,187.09c0.123,2.322,0.784,4.144,1.985,5.467c1.202,1.324,2.78,1.985,4.734,1.985c1.302,0,2.45-0.295,3.449-0.888
			c0.997-0.59,1.638-1.413,1.924-2.472h8.183c-0.938,3.095-2.565,5.475-4.885,7.144c-2.32,1.67-5.09,2.505-8.306,2.505
			c-10.015,0-15.022-5.456-15.022-16.366c0-2.32,0.325-4.417,0.977-6.29c0.651-1.872,1.598-3.48,2.84-4.823
			c1.242-1.345,2.758-2.373,4.55-3.085c1.791-0.711,3.848-1.069,6.169-1.069c4.68,0,8.202,1.477,10.564,4.43
			c2.359,2.95,3.541,7.44,3.541,13.463H380.432z M392.951,182.082c-0.082-2.238-0.732-3.896-1.954-4.976
			c-1.221-1.078-2.625-1.618-4.214-1.618c-1.586,0-2.961,0.579-4.121,1.74c-1.161,1.161-1.822,2.779-1.984,4.854H392.951z"/>
		<path d="M422.38,200.037c-0.12-0.407-0.222-0.826-0.302-1.254c-0.081-0.427-0.143-0.904-0.182-1.434
			c-0.938,1.059-2.168,1.902-3.695,2.533c-1.526,0.631-3.328,0.948-5.404,0.948c-3.461,0-5.994-0.763-7.604-2.29
			c-1.608-1.528-2.411-3.513-2.411-5.955c0-2.157,0.346-3.877,1.038-5.159c0.692-1.281,1.648-2.291,2.871-3.023
			c1.221-0.731,2.675-1.272,4.365-1.618c1.688-0.346,3.531-0.66,5.527-0.946c1.992-0.284,3.338-0.662,4.03-1.129
			c0.691-0.469,1.038-1.231,1.038-2.292c0-0.976-0.459-1.739-1.375-2.29c-0.916-0.549-2.146-0.823-3.693-0.823
			c-1.832,0-3.146,0.407-3.939,1.221c-0.793,0.815-1.293,1.893-1.496,3.236h-7.39c0.042-1.546,0.296-2.969,0.765-4.273
			c0.467-1.302,1.221-2.421,2.258-3.359c1.039-0.937,2.391-1.657,4.058-2.166s3.696-0.766,6.092-0.766
			c2.353,0,4.353,0.268,5.995,0.795c1.643,0.53,2.963,1.293,3.957,2.29c0.993,0.998,1.712,2.239,2.16,3.725
			c0.445,1.488,0.67,3.165,0.67,5.039v18.991H422.38z M421.834,185.318c-0.406,0.407-0.998,0.735-1.77,0.979
			c-0.773,0.245-1.894,0.509-3.359,0.793c-2.279,0.449-3.847,1.019-4.703,1.71c-0.854,0.694-1.28,1.689-1.28,2.992
			c0,2.24,1.28,3.358,3.847,3.358c1.017,0,1.963-0.171,2.84-0.518c0.874-0.346,1.627-0.814,2.259-1.405
			c0.63-0.59,1.139-1.283,1.526-2.076c0.387-0.794,0.58-1.637,0.58-2.534L421.834,185.318z"/>
		<path d="M452.488,200.037v-4.215c-1.994,3.339-5.108,5.009-9.342,5.009c-1.506,0-2.881-0.267-4.121-0.794
			c-1.243-0.529-2.312-1.284-3.207-2.261c-0.896-0.976-1.598-2.137-2.106-3.48c-0.511-1.345-0.763-2.849-0.763-4.519v-19.785h7.938
			v18.562c0,3.747,1.688,5.621,5.068,5.621c2.076,0,3.623-0.643,4.642-1.926c1.018-1.281,1.526-2.921,1.526-4.915v-17.343H460
			v30.045H452.488z"/>
	</g>
</g>
</svg>
