<?xml version="1.0" encoding="utf-8"?>
<!-- Generator: Adobe Illustrator 16.2.1, SVG Export Plug-In . SVG Version: 6.00 Build 0)  -->
<!DOCTYPE svg PUBLIC "-//W3C//DTD SVG 1.1//EN" "http://www.w3.org/Graphics/SVG/1.1/DTD/svg11.dtd">
<svg version="1.1" id="Layer_1" xmlns="http://www.w3.org/2000/svg" xmlns:xlink="http://www.w3.org/1999/xlink" x="0px" y="0px"
	 width="90.682px" height="129.843px" viewBox="28.629 10.157 90.682 129.843"
	 enable-background="new 28.629 10.157 90.682 129.843" xml:space="preserve">
<path d="M55,44.737V12.254c-14.311,3.75-24.717,16.094-25.996,30.832l0,0c-3.087,35.593,13.049,70.129,42.329,90.6h0
	c12.125,8.477,28.27,8.414,40.328-0.156l-24.916-20.842l-3.396,1.587c-5.004,2.338-10.955,0.177-13.293-4.827l0,0l-23.281-49.83
	c-2.338-5.003-0.177-10.955,4.827-13.293l0,0L55,44.737z M60,46.58V10.157l10,4.672v27.08L60,46.58z M88.542,107.67l27.937,23.371
	l2.833-10.668l-20.77-17.375L88.542,107.67z"/>
</svg>
