<?xml version="1.0" encoding="utf-8"?>
<!-- Generator: Adobe Illustrator 16.2.1, SVG Export Plug-In . SVG Version: 6.00 Build 0)  -->
<!DOCTYPE svg PUBLIC "-//W3C//DTD SVG 1.1//EN" "http://www.w3.org/Graphics/SVG/1.1/DTD/svg11.dtd">
<svg version="1.1" id="Layer_1" xmlns="http://www.w3.org/2000/svg" xmlns:xlink="http://www.w3.org/1999/xlink" x="0px" y="0px"
	 width="1007.408px" height="258.434px" viewBox="0 0 1007.408 258.434" enable-background="new 0 0 1007.408 258.434"
	 xml:space="preserve">
<g>
	<g>
		<path fill="#2B3990" d="M23.224,20.281c0.581-1.213,1.458-2.539,1.067-3.939c-0.508-1.819-2.838-2.425-4.178-1.103
			c-0.462,0.456-0.842,1.011-1.206,1.548c-0.576,0.848-0.433,2.37,0.391,3.029c1.734,1.388-0.049,10.872-0.404,13.479
			c-1.193,8.765-2.977,17.454-4.812,26.103c-1.878,8.852-3.929,17.668-6.047,26.466c-1.277,5.307-4.033,11.688-4.033,17.182
			c0,3.225,5,3.225,5,0c0-0.824,0-1.648,0-2.472c0-3.225-5-3.225-5,0c0,0.824,0,1.648,0,2.472c0,3.225,5,3.225,5,0
			c0-2.031,1.062-4.463,1.549-6.429c0.928-3.741,1.84-7.485,2.74-11.232c2.309-9.622,4.508-19.271,6.514-28.959
			c1.82-8.789,3.51-17.635,4.51-26.56c0.389-3.474,1.827-10.935-1.482-13.583c0.13,1.01,0.261,2.02,0.391,3.029
			c0.13-0.192,0.265-0.378,0.424-0.536c-1.393-0.368-2.786-0.736-4.179-1.104c-0.188,0.029-0.375,0.058-0.563,0.086
			C17.521,20.65,21.832,23.188,23.224,20.281L23.224,20.281z"/>
	</g>
</g>
<g>
	<g>
		<path fill="#2B3990" d="M22.342,19.488c5.005,2.049,8.504,7.973,11.223,12.312c4.56,7.276,8.155,15.188,11.403,23.119
			C50.531,68.502,56.473,83.823,57.4,98.63c0.201,3.202,5.202,3.222,5,0c-1.01-16.125-7.411-32.548-13.544-47.303
			c-3.406-8.194-7.24-16.266-12.045-23.74c-3.292-5.12-7.341-10.546-13.139-12.92C20.687,13.445,19.4,18.284,22.342,19.488
			L22.342,19.488z"/>
	</g>
</g>
<g>
	<g>
		<path fill="#2B3990" d="M22.21,72.243c6.308,6.582,19.392,1.757,26.704-0.328c3.095-0.882,1.778-5.708-1.329-4.821
			c-5.234,1.493-17.334,6.313-21.839,1.614C23.511,66.375,19.98,69.916,22.21,72.243L22.21,72.243z"/>
	</g>
</g>
<g>
	<g>
		<path fill="#2B3990" d="M65.167,72.417c0.124,9.746,1.818,19.38,1.942,29.126c0.041,3.222,5.04,3.226,5,0
			c-0.078-6.377-0.927-12.702-0.419-19.083c0.405-5.091,4.71-14.718,11.382-11.471c4.522,2.201,6.873,8.748,8.483,13.103
			c1.701,4.602,2.9,9.414,3.799,14.232c0.591,3.167,5.409,1.822,4.821-1.329C98.3,86.944,94.586,68.793,82.949,65.648
			c-6.017-1.626-12.323,3.73-14.435,8.937c-3.469,8.553-1.514,18.028-1.405,26.959c1.667,0,3.333,0,5,0
			c-0.124-9.746-1.818-19.38-1.942-29.126C70.126,69.196,65.126,69.192,65.167,72.417L65.167,72.417z"/>
	</g>
</g>
<g>
	<g>
		<path fill="#2B3990" d="M139.862,78.907c0.761-5.479-0.48-10.987-5.702-13.764c-4.617-2.455-10.531-1.122-14.439,2.046
			c-5.921,4.799-7.518,12.51-7.099,19.791c0.402,6.989,2.873,16.408,7.422,21.837c4.45,5.311,11.537,5.042,15.962-0.196
			c4.779-5.657,5.54-14.257,6.324-21.309c2.819-25.349,2.277-50.495-6.351-74.783c-0.887-2.496-5.201-2.307-4.911,0.665
			c1.781,18.245,5.483,36.497,10.487,54.116c2.757,9.708,6.107,19.384,10.879,28.301c3.311,6.187,7.764,12.399,14.449,15.139
			c2.984,1.223,4.271-3.616,1.329-4.821c-6.212-2.546-9.979-9.814-12.816-15.453c-4.266-8.476-7.125-17.675-9.667-26.79
			c-4.583-16.435-8.003-33.498-9.663-50.493c-1.637,0.222-3.274,0.443-4.911,0.665c6.611,18.61,8.801,38.38,7.686,58.045
			c-0.394,6.954-1.149,14.072-2.256,20.957c-0.799,4.966-2.143,13.155-7.784,14.827c-6.01,1.781-8.629-9.454-9.637-13.315
			c-1.571-6.017-2.401-11.968-0.226-17.961c3.195-8.802,17.749-10.706,16.1,1.167C134.603,80.73,139.42,82.089,139.862,78.907
			L139.862,78.907z"/>
	</g>
</g>
<g>
	<g>
		<path fill="#2B3990" d="M231.329,69.005c-5.881-0.712-1.866,12.337-1.35,14.498c1.697,7.115,3.491,16.259,7.929,22.273
			c1.093,1.481,3.272,1.731,4.317,0c1.852-3.066,3.021-6.507,4.779-9.632c3.077-5.47,6.111-1.07,8.808,2.1
			c3.885,4.567,10.104,5.223,14.712,1.032c9.757-8.874,6.1-26.843,6.023-38.451c-0.021-3.223-5.021-3.225-5,0
			c0.056,8.466,4.613,34.788-8.186,36.298c-3.013,0.356-5.448-4.25-7.294-6.141c-1.754-1.796-4.448-3.268-7.031-2.676
			c-6.674,1.528-8.063,9.87-11.128,14.946c1.439,0,2.878,0,4.317,0c-3.288-4.455-4.625-10.825-6.109-16.054
			c-0.898-3.166-1.678-6.366-2.324-9.592c-0.24-1.199-0.439-2.405-0.556-3.622c-0.284-2.956,0.693,0.335-1.908,0.021
			C234.525,74.393,234.488,69.388,231.329,69.005L231.329,69.005z"/>
	</g>
</g>
<g>
	<g>
		<path fill="#2B3990" d="M283.756,7.015c-1.225-0.12-1.178-0.92-0.718,0.21c0.444,1.094,0.706,2.267,0.962,3.415
			c0.806,3.595,1.2,7.285,1.583,10.943c1.103,10.524,1.623,21.113,2.146,31.678c0.544,10.986,0.972,21.978,1.54,32.962
			c0.357,6.927,0.478,14.064,1.785,20.898c0.54,2.822,4.924,2.099,4.911-0.665c-0.034-7.07-3.413-32.219,9.318-29.338
			c6.943,1.571,9.324,9.799,11.189,15.767c2.052,6.566,3.217,13.353,4.679,20.061c0.687,3.15,5.506,1.814,4.821-1.329
			c-2.762-12.674-4.798-38.5-21.902-39.767c-16.418-1.216-13.153,24.634-13.105,34.606c1.637-0.222,3.274-0.443,4.911-0.665
			c-1.451-7.586-1.416-15.603-1.794-23.291c-0.586-11.896-1.05-23.797-1.684-35.69c-0.556-10.441-1.12-20.934-2.537-31.301
			c-0.519-3.798-0.835-12.98-6.105-13.495C280.547,1.702,280.577,6.705,283.756,7.015L283.756,7.015z"/>
	</g>
</g>
<g>
	<g>
		<path fill="#2B3990" d="M355.817,88.301c2.906-6.159-0.551-12.642-5.144-16.94c-3.39-3.172-9.877-5.713-13.625-1.692
			c-5.094,5.466-2.568,17.187-1.224,23.562c1.025,4.86,3.865,17.494,10.987,16.768c3.647-0.371,5.603-4.093,6.833-7.125
			c3.267-8.054,4.327-16.989,5.426-25.542c-1.422,0.589-2.845,1.179-4.268,1.768c5.584,6.941,7.083,16.053,11.26,23.767
			c1.536,2.836,5.853,0.312,4.317-2.523c-4.428-8.179-6.101-17.394-12.042-24.778c-1.551-1.929-4.029-0.091-4.268,1.768
			c-0.871,6.772-1.92,13.552-3.813,20.124c-0.662,2.299-1.588,6.212-3.826,7.576c-1.469,0.895-4.787-9.13-5.138-10.426
			c-1.555-5.735-2.626-12.275-1.712-18.21c1.505-9.778,14.941,2.975,11.917,9.384C350.132,88.676,354.442,91.216,355.817,88.301
			L355.817,88.301z"/>
	</g>
</g>
<g>
	<g>
		<path fill="#2B3990" d="M375.698,8.182c-3.819,2.379-3.07,9.979-3.098,13.718c-0.073,9.692,0.706,19.408,1.444,29.064
			c1.384,18.087,4.206,36.366,4.299,54.521c0.017,3.224,5.017,3.225,5,0c-0.086-16.674-2.597-33.476-3.948-50.079
			c-0.775-9.532-1.485-19.082-1.74-28.644c-0.091-3.412-0.104-6.833,0.12-10.241c0.071-1.081,0.193-2.146,0.418-3.205
			c0.169-0.798,0.683-1.226,0.027-0.818C380.951,10.798,378.443,6.472,375.698,8.182L375.698,8.182z"/>
	</g>
</g>
<g>
	<g>
		<path fill="#2B3990" d="M365.019,54.247c2.357,1.717,6.264,1.208,8.965,1.07c5.219-0.266,10.417-1.047,15.597-1.701
			c3.154-0.398,3.193-5.403,0-5c-3.996,0.504-7.989,1.024-11.998,1.418c-2.439,0.24-7.892,1.461-10.042-0.105
			C364.931,48.028,362.44,52.369,365.019,54.247L365.019,54.247z"/>
	</g>
</g>
<g>
	<g>
		<path fill="#2B3990" d="M467.366,61.738c0.992,12.943,1.921,25.892,2.913,38.835c0.245,3.193,5.247,3.217,5,0
			c-0.992-12.943-1.92-25.892-2.913-38.835C472.122,58.544,467.12,58.521,467.366,61.738L467.366,61.738z"/>
	</g>
</g>
<g>
	<g>
		<path fill="#2B3990" d="M462.273,17.251c-0.803,0.817-1.602,1.812-2.12,2.842c-0.257,0.511-0.406,0.908-0.414,1.485
			c-0.016,1.165,0.796,2.1,1.866,2.445c1.295,0.418,2.383-0.455,3.231-1.296c0.968-0.958,0.96-2.576,0-3.535
			c-0.966-0.967-2.568-0.959-3.535,0c-0.147,0.146-0.295,0.289-0.45,0.426c-0.194,0.163-0.085,0.081,0.326-0.246
			c-0.577,0.432-0.492-0.896,1.742-0.175c0.368,0.214,0.735,0.429,1.103,0.643c-0.003-0.004-0.007-0.008-0.01-0.012
			c0.214,0.368,0.429,0.735,0.643,1.103c0.23,0.851,0.072,1.135-0.185,1.686c0.039-0.083,0.085-0.161,0.131-0.24
			c0.141-0.242,0.302-0.474,0.463-0.702c0.082-0.116,0.167-0.23,0.252-0.344c0.25-0.334-0.439,0.554-0.062,0.084
			c0.175-0.218,0.359-0.43,0.555-0.629c0.955-0.971,0.97-2.566,0-3.535C464.852,16.294,463.228,16.28,462.273,17.251L462.273,17.251
			z"/>
	</g>
</g>
<g>
	<g>
		<path fill="#2B3990" d="M609.612,51.47c-6.981-0.543-14.733,0.763-18.927,6.914c-3.763,5.519-0.754,12.801,3.917,16.499
			c4.081,3.231,12.802,6.149,13.253,12.146c0.661,8.778-15.009,8.127-20.573,8.131c-3.225,0.002-3.225,5.002,0,5
			c6.851-0.005,14.252-0.142,20.368-3.599c5.461-3.087,6.572-10.369,3.26-15.379c-3.336-5.046-9.664-7.105-14.101-10.932
			c-3.032-2.614-3.646-7.349-0.953-10.45c3.152-3.631,9.413-3.667,13.756-3.329C612.829,56.721,612.804,51.719,609.612,51.47
			L609.612,51.47z"/>
	</g>
</g>
<g>
	<g>
		<path fill="#2B3990" d="M737.792,55.913c-0.697-8.047-10.974-10.03-17.459-8.553c-8.7,1.981-9.051,11.456-3.928,17.072
			c6.848,7.506,19.121,10.235,19.989,21.847c0.343,4.586-2.576,7.668-7.088,7.583c-5.245-0.099-9.139-4.869-11.274-9.114
			c-1.448-2.881-5.762-0.349-4.316,2.523c3.368,6.697,10.501,13.062,18.589,11.376c8.442-1.76,10.133-10.216,8.222-17.547
			c-2.396-9.189-12.59-13.152-19.19-18.864c-12.231-10.586,10.825-13.603,11.456-6.323C733.068,59.1,738.07,59.126,737.792,55.913
			L737.792,55.913z"/>
	</g>
</g>
<g>
	<g>
		<path fill="#2B3990" d="M748.416,67.257c4.807,23.464,6.74,47.342,8.647,71.179c0.254,3.171,5,3.264,5,0c0-1.942,0-3.883,0-5.825
			c0-3.225-5-3.225-5,0c0,1.942,0,3.883,0,5.825c1.667,0,3.333,0,5,0c-1.942-24.28-3.931-48.609-8.825-72.508
			C752.59,62.77,747.771,64.11,748.416,67.257L748.416,67.257z"/>
	</g>
</g>
<g>
	<g>
		<path fill="#2B3990" d="M753.956,66.882c4.923-6.475,13.901-8.131,18.619-0.485c6.507,10.544-7.649,19.074-15.618,22.056
			c-2.991,1.119-1.696,5.954,1.33,4.821c11.727-4.387,26.365-15.302,18.606-29.4c-2.495-4.533-7.274-7.228-12.308-7.731
			c-6.204-0.62-11.435,3.596-14.946,8.216C747.686,66.927,752.032,69.414,753.956,66.882L753.956,66.882z"/>
	</g>
</g>
<g>
	<g>
		<path fill="#2B3990" d="M782.649,85.33c2.58,5.546,9.641,1.844,12.942-0.753c5.492-4.319,10.321-10.82,10.388-18.062
			c0.086-9.208-11.189-15.332-16.228-6.301c-4.468,8.008-4.235,19.316-3.077,28.102c0.896,6.793,3.402,18.468,12.232,18.542
			c8.894,0.073,15.463-12.252,19.125-18.615c1.612-2.799-2.709-5.316-4.316-2.523c-2.114,3.672-11.458,21.257-17.756,14.638
			c-5.159-5.421-5.041-16.398-4.81-23.28c0.099-2.925,1.312-17.234,5.271-16.673c6.294,0.893,4.477,9.425,2.45,13.05
			c-0.775,1.387-10.422,12.539-11.905,9.353C785.607,79.885,781.297,82.426,782.649,85.33L782.649,85.33z"/>
	</g>
</g>
<g>
	<g>
		<path fill="#2B3990" d="M846.53,67.563c-0.983-10.855-15.49-20.818-23.784-10.919c-5.866,7.001-3.266,17.887-0.236,25.504
			c3.105,7.809,8.389,17.111,16.258,20.974c9.068,4.451,13.432-5.13,14.471-12.564c0.44-3.152-4.377-4.511-4.822-1.329
			c-0.555,3.968-1.841,12.17-7.578,9.354c-5.627-2.762-9.432-9.381-12.129-14.739c-2.966-5.891-5.446-13.344-4.014-19.985
			c0.611-2.833,2.261-4.928,4.816-6.248c4.601-2.376,11.637,5.74,12.019,9.953C841.818,70.747,846.821,70.775,846.53,67.563
			L846.53,67.563z"/>
	</g>
</g>
<g>
	<g>
		<path fill="#2B3990" d="M922.467,6.15c6.779,31.956,13.511,63.959,17.388,96.423c0.377,3.161,5.382,3.197,5,0
			c-3.931-32.914-10.693-65.353-17.565-97.752C926.621,1.668,921.8,3.005,922.467,6.15L922.467,6.15z"/>
	</g>
</g>
<g>
	<g>
		<path fill="#2B3990" d="M36.972,202.223c-4.016-5.975-10.489-8.891-17.386-6.004c-3.561,1.491-4.926,6.042-5.681,9.463
			c-2.163,9.799-1.273,23.1,4.434,31.63c5.785,8.644,15.024,3.621,18.31-4.18c3.848-9.133,4.521-19.831,4.548-29.647
			c-1.422,0.589-2.845,1.179-4.268,1.768c4.223,5.403,6.369,12.937,9.131,19.136c1.443,3.238,4.321,12.088,9.141,11.694
			c3.19-0.261,3.216-5.263,0-5c-0.016,0.001-2.083-3.505-2.625-4.556c-1.477-2.864-2.733-5.848-4.018-8.802
			c-2.353-5.414-4.425-11.314-8.094-16.008c-1.409-1.803-4.262-0.22-4.268,1.768c-0.015,5.134-1.728,39.149-12.06,32.83
			c-5.763-3.524-6.063-15.642-6.111-21.385c-0.032-3.743,0.375-7.502,1.556-11.064c2.179-6.568,10.079-3.572,13.073,0.881
			C34.443,207.407,38.777,204.908,36.972,202.223L36.972,202.223z"/>
	</g>
</g>
<g>
	<g>
		<path fill="#2B3990" d="M54.867,157.234c5.949,12.879,6.882,27.622,7.632,41.584c0.774,14.431,0.758,28.923,2.795,43.257
			c1.607-0.443,3.214-0.887,4.821-1.33c-0.881-5.367-1.46-10.778-1.577-16.22c-0.088-4.091-0.512-12.23,3.677-14.678
			c2.515-1.469,6.899,1.938,8.63,3.29c3.94,3.077,6.581,7.576,5.635,12.65c-1.596,8.559-11.804,13.86-19.747,14.093
			c-3.217,0.095-3.226,5.095,0,5c10.438-0.306,20.779-6.638,24.291-16.725c3.543-10.18-5.764-20.649-15.12-23.229
			c-17.169-4.734-11.92,29.177-10.611,37.148c0.526,3.201,5.266,1.801,4.821-1.33c-4.01-28.211,1.339-59.473-10.931-86.034
			C57.833,151.786,53.524,154.328,54.867,157.234L54.867,157.234z"/>
	</g>
</g>
<g>
	<g>
		<path fill="#2B3990" d="M103.505,207.487c1.102,0.214,1.95,0.882,3.106,0.938c1.372,0.065,2.488-1.188,2.5-2.5
			c0.012-1.329-0.76-2.365-1.446-3.448c-0.891-1.407-2.707-1.609-3.926-0.506c-5.562,5.029-6.958,13.833-7.492,20.91
			c-0.603,7.983,0.637,17.117,6.122,23.298c3.103,3.496,8.689,6.055,13.352,4.854c4.172-1.075,6.552-5.189,8.034-8.889
			c3.856-9.628,3.237-22.384-0.051-32.068c-3.057-9.002-10.648-13.535-18.354-6.207c-1.251,1.19-2.3,2.585-3.339,3.958
			c-1.946,2.574,2.399,5.061,4.317,2.523c1.555-2.057,4.558-6.069,7.642-5.441c2.677,0.545,4.109,4.274,4.912,6.496
			c2.848,7.884,3.058,17.312,1.249,25.443c-0.696,3.129-1.825,6.427-4.286,8.605c-2.625,2.325-6.136-0.104-8.472-1.529
			c-6.02-3.671-6.369-13.805-6.186-19.918c0.18-5.999,1.371-14.235,6.087-18.5c-1.309-0.169-2.618-0.337-3.926-0.506
			c0.564,1.363,0.818,1.672,0.763,0.925c0.833-0.834,1.667-1.667,2.5-2.5c1.319,0.063-1.304-0.667-1.777-0.76
			C101.685,202.053,100.341,206.872,103.505,207.487L103.505,207.487z"/>
	</g>
</g>
<g>
	<g>
		<path fill="#2B3990" d="M269.43,157.174c7.155,11.736,8.659,26.627,10.089,40.005c1.493,13.962,2.064,28.034,4.222,41.922
			c0.494,3.178,5.311,1.823,4.821-1.33c-2.312-14.884-2.799-30.005-4.529-44.96c-1.494-12.909-3.399-26.863-10.286-38.16
			C272.072,151.903,267.747,154.414,269.43,157.174L269.43,157.174z"/>
	</g>
</g>
<g>
	<g>
		<path fill="#2B3990" d="M268.982,189.391c9.242,1.918,18.479,1.939,27.849,1.06c3.182-0.299,3.211-5.302,0-5
			c-8.911,0.837-17.718,0.946-26.52-0.882C267.165,183.917,265.826,188.736,268.982,189.391L268.982,189.391z"/>
	</g>
</g>
<g>
	<g>
		<path fill="#2B3990" d="M959.032,145.346c-3.039-2.698,2.877-7.284,4.839-8.774c4.677-3.551,10.273-5.907,16.023-6.995
			c5.449-1.031,11.255,0.124,14.435,5.004c2.996,4.597-1.47,11.802-3.713,15.74c-5.869,10.304-16.332,20.493-18.194,32.591
			c-1.056,6.864,2.935,14.534,6.254,20.271c3.755,6.489,8.894,12.81,15.192,16.965c2.7,1.78,5.202-2.551,2.523-4.318
			c-8.087-5.334-14.176-14.762-17.492-23.701c-2.996-8.077-0.323-13.618,3.919-20.544c4.07-6.646,8.776-12.877,12.638-19.655
			c2.876-5.05,5.412-10.751,4.438-16.668c-0.864-5.254-6.306-9.104-11.072-10.41c-6.109-1.674-12.979,0.1-18.642,2.461
			c-6.012,2.506-23.974,13.324-14.684,21.57C957.899,151.014,961.448,147.491,959.032,145.346L959.032,145.346z"/>
	</g>
</g>
<g>
	<g>
		<path fill="#2B3990" d="M996.274,244.028c-0.457-0.516,0.18,0.327,0.249,0.495c0.291,0.702,0.503,1.478,0.58,2.233
			c0.211,2.049-0.593,3.791-2.265,4.996c1.14,0.299,2.28,0.598,3.42,0.896c-0.276-0.504-1.712-2.892-1.079-3.306
			c1.478-0.968,4.056-0.692,5.716-0.7c-0.589-1.423-1.179-2.845-1.768-4.268c-0.804,0.726-0.673,0.577-1.654,0.118
			c-1.104-0.516-2.159-0.767-3.373-0.851c-3.22-0.224-3.198,4.777,0,5c1.27,0.088,2.318,1.003,3.576,1.2
			c2.012,0.316,3.543-0.629,4.986-1.933c1.646-1.487,0.337-4.278-1.768-4.268c-3.215,0.016-6.695,0.048-9.295,2.176
			c-2.914,2.385-1.088,6.755,0.342,9.354c0.61,1.11,2.333,1.68,3.42,0.896c3.014-2.17,4.762-5.069,4.767-8.836
			c0.003-2.308-0.769-4.988-2.319-6.74C997.668,238.073,994.146,241.623,996.274,244.028L996.274,244.028z"/>
	</g>
</g>
<g>
	<g>
		<path fill="#2B3990" d="M134.441,205.511c-0.04,11.773-1.537,38.907,15.053,40.839c18.679,2.175,24.843-31.139,15.968-42.899
			c-1.917-2.539-6.261-0.053-4.317,2.523c6.448,8.545,2.705,39.383-12.499,35.104c-6.562-1.847-7.954-12.564-8.62-18.082
			c-0.702-5.808-0.604-11.649-0.584-17.485C139.452,202.287,134.452,202.288,134.441,205.511L134.441,205.511z"/>
	</g>
</g>
<g>
	<g>
		<path fill="#2B3990" d="M305.202,159.203c-1.394-0.585-1.104-1.132-0.708,0.255c0.253,0.886,0.414,1.799,0.577,2.704
			c0.544,3.03,0.831,6.109,1.125,9.171c0.847,8.803,1.338,17.642,1.811,26.471c0.827,15.448,1.212,30.925,2.155,46.367
			c0.197,3.232,4.761,3.208,5,0c0.661-8.881-0.924-17.766-0.045-26.659c0.356-3.61,1.518-8.86,5.336-10.331
			c2.866-1.104,5.583,0.935,7.549,2.803c5.637,5.354,8.93,13.555,11.578,20.688c2.12,5.711,4.441,12.19,4.563,18.354
			c0.064,3.22,5.064,3.227,5,0c-0.159-8.022-3.317-16.343-6.29-23.671c-3.204-7.899-7.433-16.896-14.829-21.701
			c-7.279-4.729-14.299,0.686-16.741,7.794c-3.566,10.382-0.326,22.045-1.121,32.725c1.667,0,3.333,0,5,0
			c-1.056-17.289-1.475-34.616-2.461-51.911c-0.502-8.807-1.038-17.635-2.09-26.396c-0.401-3.337-0.338-9.913-4.081-11.482
			C303.559,153.135,302.275,157.975,305.202,159.203L305.202,159.203z"/>
	</g>
</g>
<g>
	<g>
		<path fill="#2B3990" d="M348.544,219.219c-2.368,3.954,1.637,6.051,5.087,5.994c5.377-0.088,10.892-2.164,15.668-4.47
			c4.462-2.154,9.548-5.667,10.649-10.832c1.322-6.2-4.631-10.834-9.339-13.499c-8.059-4.563-15.054,2.267-18.364,9.202
			c-4.367,9.149-5.497,20.25-3.548,30.153c1.399,7.108,5.379,13.857,12.537,16.24c9.998,3.329,21.241-3.849,28.869-9.434
			c2.573-1.883,0.083-6.225-2.523-4.316c-7.861,5.755-23.21,15.594-30.899,4.323c-5.504-8.067-4.523-20.124-2.065-29.041
			c1.866-6.771,6.585-16.966,14.855-11.994c5.882,3.537,7.401,8.094,1.578,12.362c-4.482,3.286-10.412,5.48-15.916,6.188
			c-0.919,0.118-1.846,0.149-2.771,0.091c-0.699-0.045,0.357,1.794,0.5,1.556C354.522,218.969,350.198,216.457,348.544,219.219
			L348.544,219.219z"/>
	</g>
</g>
<g>
	<g>
		<path fill="#2B3990" d="M606.549,191.318c-6.602-7.69-18.8-8.319-25.439-0.67c-5.498,6.336-5.788,15.396-3.392,23.063
			c2.396,7.666,8.006,14.59,15.37,17.914c8.816,3.98,17.876,0.938,25.111-4.733c2.536-1.987-1.028-5.5-3.535-3.535
			c-11.847,9.283-25.833,4.188-31.477-9.205c-2.193-5.205-2.794-11.409-0.521-16.687c3.663-8.506,14.326-9.625,20.347-2.612
			C605.118,197.303,608.638,193.75,606.549,191.318L606.549,191.318z"/>
	</g>
</g>
<g>
	<g>
		<path fill="#2B3990" d="M627.524,144.542c-1.098,29.787,3.798,59.582,4.854,89.32c0.114,3.212,5.025,3.233,5,0
			c-0.046-5.841-0.484-11.653-0.282-17.499c0.171-4.935,0.378-15.043,6.215-16.983c5.297-1.762,8.945,8.992,10.297,12.462
			c2.13,5.471,3.651,11.172,5.074,16.859c0.782,3.126,5.604,1.799,4.822-1.33c-1.833-7.324-3.932-14.568-6.999-21.482
			c-2.458-5.539-6.767-12.912-13.866-11.548c-6.931,1.331-9.175,9.534-9.971,15.473c-1.074,8.024-0.354,16.001-0.29,24.049
			c1.667,0,3.333,0,5,0c-1.056-29.738-5.951-59.533-4.854-89.32C632.643,141.317,627.642,141.329,627.524,144.542L627.524,144.542z"
			/>
	</g>
</g>
<g>
	<g>
		<path fill="#2B3990" d="M695.542,211.838c-1.802-8.902-9.618-18.692-19.519-14.046c-7.51,3.525-10.201,15.364-7.956,22.644
			c1.664,5.399,6.851,10.019,12.759,9.023c9.005-1.517,12.3-12.583,13.745-20.175c-1.394,0.367-2.786,0.735-4.179,1.103
			c5.965,7.159,8.927,16.168,12.696,24.556c0.979,2.179,2.236,5.443,5.386,4.499c2.781-0.834,1.953-2.692,2.601-4.914
			c0.902-3.104-3.923-4.419-4.822-1.33c-0.298,1.024-0.118,2.046-0.359,3.021c0.582-0.582,1.164-1.164,1.746-1.746
			c0.824-0.247-4.944-12.941-5.659-14.529c-2.128-4.728-4.733-9.106-8.053-13.091c-1.166-1.4-3.841-0.67-4.179,1.103
			c-1.061,5.576-2.633,12.73-7.875,15.929c-3.389,2.066-6.763-0.494-8.411-3.437c-2.354-4.198-1.155-9.51,0.911-13.526
			c5.699-11.08,14.663-2.069,16.346,6.248C691.36,216.327,696.179,214.987,695.542,211.838L695.542,211.838z"/>
	</g>
</g>
<g>
	<g>
		<path fill="#2B3990" d="M711.991,217.357c0.114,5.466,0.985,10.843,2.03,16.2c0.536,2.745,5.286,2.131,4.911-0.665
			c-1.195-8.914-4.38-18.646-2.604-27.643c1.968-9.972,17.594-14.595,24.55-7.484c2.258,2.308,5.791-1.229,3.535-3.535
			c-8.295-8.479-22.175-5.172-29.419,3.029c-8.216,9.302-2.502,24.889-1.062,35.633c1.637-0.222,3.273-0.443,4.911-0.665
			c-0.961-4.924-1.747-9.844-1.853-14.87C716.923,214.137,711.923,214.13,711.991,217.357L711.991,217.357z"/>
	</g>
</g>
<g>
	<g>
		<path fill="#2B3990" d="M772.331,205.707c-0.678-7.658-5.618-14.025-13.571-9.525c-8.979,5.08-9.824,17.097-8.079,26.043
			c1.282,6.577,6.503,11.196,12.985,7.652c7.463-4.079,10.662-14.44,11.577-22.228c-1.553,0.421-3.105,0.841-4.658,1.262
			c4.442,8.08,6.65,17.879,13.012,24.777c2.189,2.375,5.717-1.17,3.535-3.535c-5.982-6.488-8.04-16.146-12.23-23.766
			c-1.312-2.387-4.391-1.02-4.658,1.262c-0.646,5.496-2.577,11.019-6.151,15.308c-2.786,3.344-6.268,4.776-8.053-0.087
			c-2.178-5.932-1.698-13.322,1.607-18.688c1.323-2.147,3.396-3.969,5.861-4.587c3.071-0.77,3.66,4.264,3.823,6.112
			C767.612,208.892,772.615,208.919,772.331,205.707L772.331,205.707z"/>
	</g>
</g>
<g>
	<g>
		<path fill="#2B3990" d="M808.374,204.954c2.096,1.145,3.743,1.979,6.117,2.282c2.323,0.297,3.089-2.846,1.768-4.268
			c-3.097-3.332-6.465-6.269-11.163-6.631c-4.411-0.34-7.689,3.853-9.725,7.137c-4.398,7.102-4.351,15.968,0.281,22.896
			c3.899,5.835,10.761,9.401,17.735,9.405c8.487,0.005,14.265-6.511,17.106-13.87c1.163-3.013-3.673-4.305-4.822-1.33
			c-4.119,10.67-15.404,13.291-23.788,5.47c-3.715-3.467-5.39-8.615-4.641-13.603c0.56-3.72,2.557-7.407,5.226-10.017
			c3.46-3.384,8.062,1.719,10.255,4.077c0.589-1.423,1.179-2.845,1.768-4.268c-1.27-0.378-2.468-0.911-3.594-1.601
			C808.067,199.089,805.543,203.407,808.374,204.954L808.374,204.954z"/>
	</g>
</g>
<g>
	<g>
		<path fill="#2B3990" d="M830.494,168.149c-0.229-1.326-0.742-2.557-0.971-3.884c-1.523,0.643-3.047,1.285-4.569,1.927
			c8.336,19.114,8.576,40.226,11.397,60.568c0.442,3.182,5.259,1.822,4.822-1.33c-2.899-20.898-3.339-42.125-11.903-61.762
			c-1.214-2.785-5.013-0.649-4.569,1.927c0.229,1.326,0.742,2.557,0.971,3.884C826.219,172.652,831.037,171.302,830.494,168.149
			L830.494,168.149z"/>
	</g>
</g>
<g>
	<g>
		<path fill="#2B3990" d="M823.533,192.584c9.565,2.039,19.271,2.796,28.516-0.971c2.944-1.2,1.657-6.039-1.33-4.822
			c-8.457,3.447-17.093,2.84-25.855,0.971C821.717,187.092,820.38,191.912,823.533,192.584L823.533,192.584z"/>
	</g>
</g>
<g>
	<g>
		<path fill="#2B3990" d="M852.66,214.915c11.417,2.124,34.125-13.427,23.816-25.988c-2.917-3.555-8.498-4.622-12.347-2.166
			c-3.525,2.25-5.377,6.513-6.646,10.318c-3.177,9.535-3.463,21.548,0.078,31.015c3.647,9.755,12.333,12.132,20.895,6.441
			c4.929-3.275,8.911-7.903,12.558-12.497c1.982-2.497-1.531-6.061-3.535-3.535c-3.613,4.55-14.763,19.395-22.088,12.938
			c-5.68-5.005-5.521-15.779-5.059-22.592c0.34-5.002,1.532-16.305,7.386-18.331c1.607-0.557,3.405,0.411,4.637,1.375
			c2.601,2.037,1.361,5.396,0.04,7.767c-3.239,5.811-11.479,11.722-18.405,10.433C850.838,209.506,849.493,214.325,852.66,214.915
			L852.66,214.915z"/>
	</g>
</g>
<g>
	<g>
		<path fill="#2B3990" d="M892.915,203.085c1.515,3.524,2.1,7.732,3.065,11.434c1.327,5.089,2.652,10.205,4.449,15.153
			c0.955,2.626,4.796,2.243,4.911-0.665c0.38-9.547-1.125-19.445,0.803-28.872c2.731-13.354,16.754-7.988,25.531-3.92
			c2.905,1.346,5.446-2.963,2.523-4.318c-9.542-4.422-25.228-10.394-31.3,2.186c-4.993,10.343-2.118,23.867-2.558,34.925
			c1.637-0.222,3.273-0.443,4.911-0.665c-3.273-9.009-4.246-19.001-8.021-27.78C895.961,197.607,891.655,200.157,892.915,203.085
			L892.915,203.085z"/>
	</g>
</g>
<g>
	<g>
		<path fill="#2B3990" d="M867.217,60.697c0-0.006,0.001-0.013,0.001-0.019c-1.666,0-3.333,0-5,0
			c0.725,12.252,0.936,24.641,0.97,36.913c1.667,0,3.333,0,5,0c-0.033-1.911-0.275-3.52-1.312-5.146
			c-1.728-2.709-6.057-0.204-4.316,2.523c0.496,0.822,0.706,1.696,0.629,2.622c0.056,3.22,5.009,3.227,5,0
			c-0.034-12.272-0.245-24.661-0.97-36.913c-0.19-3.229-4.78-3.213-5,0c0,0.006-0.001,0.013-0.001,0.019
			C861.998,63.917,867,63.896,867.217,60.697L867.217,60.697z"/>
	</g>
</g>
<g>
	<g>
		<path fill="#2B3990" d="M865.276,34.403c0-0.647,0-1.294,0-1.941c0-1.363-1.137-2.5-2.5-2.5s-2.5,1.137-2.5,2.5
			c0,0.647,0,1.294,0,1.941c0,1.363,1.137,2.5,2.5,2.5S865.276,35.766,865.276,34.403L865.276,34.403z"/>
	</g>
</g>
<g>
	<g>
		<path fill="#2B3990" d="M910.932,63.192c-4.125-5.729-9.121-11.42-16.194-13.294c-6.744-1.788-12.382,3.234-15.742,8.495
			c-4.975,7.788-3.48,18.036,0.288,25.941c2.977,6.246,9.465,13.643,17.166,12.45c11.066-1.713,12.971-17.916,13.854-26.506
			c-1.423,0.589-2.845,1.179-4.268,1.768c9.246,7.672,12.138,20.475,20.389,29.127c2.229,2.338,5.759-1.203,3.535-3.535
			c-8.268-8.67-11.05-21.378-20.389-29.127c-1.752-1.454-4.038-0.468-4.268,1.768c-0.632,6.149-1.67,19.191-9.137,21.483
			c-4.842,1.487-9.387-4.49-11.479-7.938c-3.288-5.417-4.732-12.22-3.252-18.427c1.046-4.386,4.308-9.008,8.617-10.547
			c6.582-2.35,13.368,6.43,16.563,10.866C908.481,68.306,912.821,65.814,910.932,63.192L910.932,63.192z"/>
	</g>
</g>
<linearGradient id="SVGID_1_" gradientUnits="userSpaceOnUse" x1="450.2451" y1="211.6333" x2="525.6294" y2="211.6333">
	<stop  offset="0" style="stop-color:#404040"/>
	<stop  offset="1" style="stop-color:#666666"/>
</linearGradient>
<path fill="url(#SVGID_1_)" d="M502.778,171.662h-6.848c-12.617,0-22.845,10.228-22.845,22.845v11.42h-11.418v-34.265h-11.422
	v79.944h11.422v-34.265h11.418v11.42c0,12.617,10.228,22.845,22.845,22.845h6.848c12.619,0,22.852-10.228,22.852-22.845v-34.255
	C525.629,181.889,515.397,171.662,502.778,171.662z M514.204,228.761c0,6.307-5.109,11.429-11.426,11.429h-6.848
	c-6.307,0-11.42-5.122-11.42-11.429v-34.255c0-6.307,5.113-11.429,11.42-11.429h6.848c6.316,0,11.426,5.122,11.426,11.429V228.761z"
	/>
<g>
	<g>
		<path fill="#2B3990" d="M645.939,57.104c-16.601-6.008-25.042,11.193-23.165,25.411c1.991,15.082,17.582,32.482,32.135,18.996
			c9.551-8.851,7.414-23.697,1.898-34.133c-5.378-10.177-16.807-15.854-25.301-5.631c-2.045,2.46,1.473,6.018,3.535,3.535
			c6.177-7.434,12.761-3.188,16.987,3.803c4.208,6.96,6.397,17.116,2.639,24.692c-2.807,5.656-9.199,9.485-15.265,6.73
			c-6.056-2.75-9.583-9.777-11.194-15.852c-2.94-11.081,2.243-27.854,16.4-22.73C647.649,63.025,648.946,58.192,645.939,57.104
			L645.939,57.104z"/>
	</g>
</g>
<g>
	<g>
		<path fill="#2B3990" d="M519.681,62.674c-3.573-9.782-13.658-13.599-23.347-10.743c-9.317,2.747-13.602,11.86-8.158,20.223
			c3.137,4.818,8.163,8.411,13.436,10.5c5.91,2.341,12.831,3.713,17.654,8.108c2.275,2.073,2.252,5.088,0.172,7.286
			c-2.254,2.381-6.561,2.453-9.563,2.467c-6.065,0.029-12.979-1.422-18.342-4.336c-2.833-1.54-5.357,2.778-2.523,4.317
			c8.729,4.743,22.211,7.366,31.463,2.896c4.344-2.099,6.377-7.225,5.156-11.763c-1.364-5.07-7.308-7.849-11.67-9.697
			c-5.167-2.19-11.011-3.322-15.626-6.608c-4.138-2.946-9.968-8.606-6.926-14.12c4.981-9.03,20.286-5.873,23.453,2.797
			C515.957,67.006,520.79,65.709,519.681,62.674L519.681,62.674z"/>
	</g>
</g>
<g>
	<g>
		<path fill="#2B3990" d="M175.285,157.354c-0.55,13.605,2.277,27.449,4.472,40.812c2.676,16.293,5.832,32.656,6.528,49.188
			c0.135,3.212,5.136,3.226,5,0c-0.652-15.465-3.442-30.81-5.969-46.052c-2.385-14.392-5.624-29.284-5.031-43.948
			C180.416,154.128,175.415,154.141,175.285,157.354L175.285,157.354z"/>
	</g>
</g>
<g>
	<g>
		<path fill="#2B3990" d="M163.047,194.512c5.336-2.316,13.623-0.607,19.19-0.182c7.171,0.549,14.349,1.458,21.548,1.523
			c3.226,0.029,3.223-4.971,0-5c-8.078-0.073-16.141-1.137-24.191-1.721c-6.048-0.438-13.33-1.43-19.07,1.062
			C157.572,191.476,160.121,195.783,163.047,194.512L163.047,194.512z"/>
	</g>
</g>
</svg>
