<?xml version="1.0" encoding="utf-8"?>
<!-- Generator: Adobe Illustrator 16.2.1, SVG Export Plug-In . SVG Version: 6.00 Build 0)  -->
<!DOCTYPE svg PUBLIC "-//W3C//DTD SVG 1.1//EN" "http://www.w3.org/Graphics/SVG/1.1/DTD/svg11.dtd">
<svg version="1.1" id="Layer_1" xmlns="http://www.w3.org/2000/svg" xmlns:xlink="http://www.w3.org/1999/xlink" x="0px" y="0px"
	 width="16.974px" height="18px" viewBox="1 0 16.974 18" enable-background="new 1 0 16.974 18" xml:space="preserve">
<path fill="#808284" d="M12.829,0h-1.542C8.446,0,6.143,2.303,6.143,5.144v2.571H3.572V0H1v18h2.57v-7.715h2.571v2.57
	c0,2.842,2.303,5.145,5.146,5.145h1.542c2.841,0,5.145-2.303,5.145-5.145V5.144C17.973,2.303,15.669,0,12.829,0z M15.401,12.855
	c0,1.42-1.148,2.574-2.57,2.574h-1.542c-1.42,0-2.571-1.154-2.571-2.574V5.144c0-1.42,1.151-2.573,2.571-2.573h1.542
	c1.422,0,2.57,1.153,2.57,2.573V12.855z"/>
</svg>
