<?xml version="1.0" encoding="utf-8"?>
<!-- Generator: Adobe Illustrator 16.2.1, SVG Export Plug-In . SVG Version: 6.00 Build 0)  -->
<!DOCTYPE svg PUBLIC "-//W3C//DTD SVG 1.1//EN" "http://www.w3.org/Graphics/SVG/1.1/DTD/svg11.dtd">
<svg version="1.1" id="Layer_1" xmlns="http://www.w3.org/2000/svg" xmlns:xlink="http://www.w3.org/1999/xlink" x="0px" y="0px"
	 width="17.973px" height="18px" viewBox="0 0 17.973 18" enable-background="new 0 0 17.973 18" xml:space="preserve">
<path fill="#FFFFFF" d="M11.828,0h-1.542c-2.84,0-5.143,2.303-5.143,5.144v2.571H2.572V0H0v18h2.572v-7.715h2.571v2.571
	c0,2.841,2.303,5.144,5.143,5.144h1.542c2.841,0,5.145-2.303,5.145-5.144V5.144C16.972,2.303,14.668,0,11.828,0z M14.4,12.856
	c0,1.42-1.15,2.573-2.572,2.573h-1.542c-1.42,0-2.571-1.153-2.571-2.573V5.144c0-1.42,1.151-2.573,2.571-2.573h1.542
	c1.422,0,2.572,1.153,2.572,2.573V12.856z"/>
<linearGradient id="SVGID_1_" gradientUnits="userSpaceOnUse" x1="1.0005" y1="9" x2="17.9731" y2="9">
	<stop  offset="0" style="stop-color:#404040"/>
	<stop  offset="1" style="stop-color:#666666"/>
</linearGradient>
<path fill="url(#SVGID_1_)" d="M12.829,0h-1.542C8.446,0,6.143,2.303,6.143,5.144v2.571H3.572V0H1v18h2.572v-7.715h2.571v2.571
	c0,2.841,2.303,5.144,5.144,5.144h1.542c2.841,0,5.145-2.303,5.145-5.144V5.144C17.973,2.303,15.669,0,12.829,0z M15.401,12.856
	c0,1.42-1.15,2.573-2.572,2.573h-1.542c-1.42,0-2.571-1.153-2.571-2.573V5.144c0-1.42,1.151-2.573,2.571-2.573h1.542
	c1.422,0,2.572,1.153,2.572,2.573V12.856z"/>
</svg>
